<svg width="111" height="136" viewBox="0 0 111 136" fill="none" xmlns="http://www.w3.org/2000/svg">
<g filter="url(#filter0_d_277_2)">
<g filter="url(#filter1_i_277_2)">
<path d="M59.9207 66.0787C59.4998 67.1803 58.222 67.6804 57.1652 67.1572L16.7949 47.1722C15.2386 46.4018 15.3362 44.1503 16.9533 43.5174L73.4028 21.4236C75.0198 20.7907 77.1198 23.3779 76.5 25L59.9207 66.0787Z" fill="#FFE176" fill-opacity="0.84"/>
</g>
<path d="M58.0661 65.3302L58.0591 65.3474L58.0525 65.3648L17.6822 45.3798L73.9361 23.3626C74.0182 23.4137 74.1358 23.5067 74.2612 23.6554C74.4274 23.8526 74.5373 24.0653 74.5856 24.2301C74.6008 24.2819 74.607 24.318 74.6096 24.34L58.0661 65.3302ZM74.1317 23.2861C74.1313 23.2862 74.1309 23.2864 74.1305 23.2866L74.1317 23.2861ZM74.6111 24.3668C74.6111 24.3668 74.6111 24.3658 74.6112 24.364L74.6111 24.3668Z" stroke="black" stroke-width="4"/>
<path d="M58.646 66.6936L58.7671 66.6462L74.6829 105.939L75.3887 107.681L77.2586 107.487L85.1474 106.666C85.3581 106.682 85.4475 106.749 85.4855 106.782C85.5495 106.838 85.6142 106.936 85.6406 107.073C85.6672 107.211 85.6427 107.326 85.6066 107.396C85.5835 107.441 85.524 107.54 85.3001 107.627L67.2577 114.689C67.0498 114.77 66.9537 114.739 66.9109 114.723C66.8373 114.695 66.7323 114.621 66.6488 114.484C66.5652 114.348 66.5476 114.22 66.5561 114.142C66.5606 114.101 66.5743 114.014 66.7027 113.888L73.0328 108.975L74.5012 107.835L73.8328 106.101L58.646 66.6936Z" stroke="black" stroke-width="5"/>
<ellipse rx="1.45861" ry="8.05086" transform="matrix(0.923599 0.383359 -0.402239 0.915535 62.1657 42.93)" fill="white"/>
<ellipse rx="0.838513" ry="3.12838" transform="matrix(0.937878 0.346965 -0.366061 0.930591 57.9317 54.3381)" fill="white"/>
<g filter="url(#filter2_i_277_2)">
<path d="M19.4389 46C30.8384 44.2267 57.3709 37.8502 72.3054 26.5304C90.9735 12.3806 6.05099 45.2863 19.4389 46Z" fill="white"/>
</g>
<path d="M19.4389 46C30.8384 44.2267 57.3709 37.8502 72.3054 26.5304C90.9735 12.3806 6.05099 45.2863 19.4389 46Z" stroke="black" stroke-width="4" stroke-linecap="round"/>
</g>
<defs>
<filter id="filter0_d_277_2" x="15.6821" y="21" width="82.4696" height="106.243" filterUnits="userSpaceOnUse" color-interpolation-filters="sRGB">
<feFlood flood-opacity="0" result="BackgroundImageFix"/>
<feColorMatrix in="SourceAlpha" type="matrix" values="0 0 0 0 0 0 0 0 0 0 0 0 0 0 0 0 0 0 127 0" result="hardAlpha"/>
<feOffset dx="6" dy="6"/>
<feGaussianBlur stdDeviation="2"/>
<feComposite in2="hardAlpha" operator="out"/>
<feColorMatrix type="matrix" values="0 0 0 0 0 0 0 0 0 0 0 0 0 0 0 0 0 0 0.25 0"/>
<feBlend mode="normal" in2="BackgroundImageFix" result="effect1_dropShadow_277_2"/>
<feBlend mode="normal" in="SourceGraphic" in2="effect1_dropShadow_277_2" result="shape"/>
</filter>
<filter id="filter1_i_277_2" x="15.6821" y="11.3259" width="70.9291" height="56.0396" filterUnits="userSpaceOnUse" color-interpolation-filters="sRGB">
<feFlood flood-opacity="0" result="BackgroundImageFix"/>
<feBlend mode="normal" in="SourceGraphic" in2="BackgroundImageFix" result="shape"/>
<feColorMatrix in="SourceAlpha" type="matrix" values="0 0 0 0 0 0 0 0 0 0 0 0 0 0 0 0 0 0 127 0" result="hardAlpha"/>
<feOffset dx="10" dy="-10"/>
<feGaussianBlur stdDeviation="15"/>
<feComposite in2="hardAlpha" operator="arithmetic" k2="-1" k3="1"/>
<feColorMatrix type="matrix" values="0 0 0 0 0 0 0 0 0 0 0 0 0 0 0 0 0 0 0.15 0"/>
<feBlend mode="normal" in2="shape" result="effect1_innerShadow_277_2"/>
</filter>
<filter id="filter2_i_277_2" x="15.9987" y="16" width="71.0009" height="32.0082" filterUnits="userSpaceOnUse" color-interpolation-filters="sRGB">
<feFlood flood-opacity="0" result="BackgroundImageFix"/>
<feBlend mode="normal" in="SourceGraphic" in2="BackgroundImageFix" result="shape"/>
<feColorMatrix in="SourceAlpha" type="matrix" values="0 0 0 0 0 0 0 0 0 0 0 0 0 0 0 0 0 0 127 0" result="hardAlpha"/>
<feOffset dx="20" dy="-5"/>
<feGaussianBlur stdDeviation="5"/>
<feComposite in2="hardAlpha" operator="arithmetic" k2="-1" k3="1"/>
<feColorMatrix type="matrix" values="0 0 0 0 0 0 0 0 0 0 0 0 0 0 0 0 0 0 0.15 0"/>
<feBlend mode="normal" in2="shape" result="effect1_innerShadow_277_2"/>
</filter>
</defs>
</svg>
