<svg width="349" height="342" viewBox="0 0 349 342" fill="none" xmlns="http://www.w3.org/2000/svg">
<g filter="url(#filter0_d_217_151)">
<ellipse cx="169.444" cy="166" rx="169.444" ry="166" fill="#292626"/>
<g filter="url(#filter1_d_217_151)">
<path d="M169 314C85.6049 314 17.9999 247.738 17.9999 166" stroke="white" stroke-width="2"/>
</g>
<ellipse cx="166" cy="162.204" rx="91.839" ry="88.705" fill="url(#paint0_linear_217_151)" stroke="black" stroke-width="8"/>
<path d="M169 286C99.9643 286 43.9999 232.05 43.9999 165.5" stroke="white" stroke-width="2"/>
<path d="M225.295 162.203C225.295 194.473 198.584 220.685 165.569 220.685C132.554 220.685 105.843 194.473 105.843 162.203C105.843 129.934 132.554 103.722 165.569 103.722C198.584 103.722 225.295 129.934 225.295 162.203Z" fill="#787878" stroke="black" stroke-width="3"/>
<g filter="url(#filter2_d_217_151)">
<g filter="url(#filter3_i_217_151)">
<path d="M165.85 162.155C165.429 163.256 164.151 163.756 163.094 163.233L122.724 143.248C121.167 142.478 121.265 140.226 122.882 139.593L179.332 117.5C180.949 116.867 182.549 118.454 181.929 120.076L165.85 162.155Z" fill="#FFE176" fill-opacity="0.84"/>
</g>
<path d="M163.981 161.441L123.611 141.456L180.06 119.362L163.981 161.441Z" stroke="black" stroke-width="4"/>
<path d="M180.229 203.485C180.407 203.328 180.633 203.24 180.87 203.234L191.183 203.005C191.529 202.997 191.73 203.103 191.86 203.216C192.009 203.346 192.134 203.552 192.186 203.809C192.237 204.065 192.201 204.304 192.113 204.481C192.037 204.635 191.892 204.81 191.57 204.936L173.527 211.998C173.205 212.124 172.98 212.094 172.819 212.033C172.634 211.962 172.446 211.811 172.309 211.588C172.173 211.365 172.125 211.128 172.146 210.931C172.165 210.76 172.241 210.547 172.5 210.317L180.229 203.485Z" fill="#C4C4C4" stroke="black" stroke-width="4"/>
<mask id="path-9-inside-1_217_151" fill="white">
<rect x="161.497" y="162.119" width="5.12174" height="45.1588" rx="2" transform="rotate(-21.3749 161.497 162.119)"/>
</mask>
<rect x="161.497" y="162.119" width="5.12174" height="45.1588" rx="2" transform="rotate(-21.3749 161.497 162.119)" fill="#C4C4C4" stroke="black" stroke-width="5.12174" mask="url(#path-9-inside-1_217_151)"/>
<g filter="url(#filter4_i_217_151)">
<path d="M121.525 141.718C134.077 139.709 163.293 132.482 179.738 119.653C200.294 103.618 106.783 140.91 121.525 141.718Z" fill="white"/>
</g>
<path d="M121.525 141.718C134.077 139.709 163.293 132.482 179.738 119.653C200.294 103.618 106.783 140.91 121.525 141.718Z" stroke="black" stroke-width="4" stroke-linecap="round"/>
<ellipse rx="1.45861" ry="8.05086" transform="matrix(0.923599 0.383359 -0.402239 0.915535 172.06 133.46)" fill="white"/>
<ellipse rx="0.838513" ry="3.12838" transform="matrix(0.937878 0.346965 -0.366061 0.930591 167.826 144.868)" fill="white"/>
</g>
</g>
<defs>
<filter id="filter0_d_217_151" x="-6.10352e-05" y="0" width="348.888" height="342" filterUnits="userSpaceOnUse" color-interpolation-filters="sRGB">
<feFlood flood-opacity="0" result="BackgroundImageFix"/>
<feColorMatrix in="SourceAlpha" type="matrix" values="0 0 0 0 0 0 0 0 0 0 0 0 0 0 0 0 0 0 127 0" result="hardAlpha"/>
<feOffset dx="6" dy="6"/>
<feGaussianBlur stdDeviation="2"/>
<feComposite in2="hardAlpha" operator="out"/>
<feColorMatrix type="matrix" values="0 0 0 0 0 0 0 0 0 0 0 0 0 0 0 0 0 0 0.25 0"/>
<feBlend mode="normal" in2="BackgroundImageFix" result="effect1_dropShadow_217_151"/>
<feBlend mode="normal" in="SourceGraphic" in2="effect1_dropShadow_217_151" result="shape"/>
</filter>
<filter id="filter1_d_217_151" x="12.9999" y="166" width="160" height="157" filterUnits="userSpaceOnUse" color-interpolation-filters="sRGB">
<feFlood flood-opacity="0" result="BackgroundImageFix"/>
<feColorMatrix in="SourceAlpha" type="matrix" values="0 0 0 0 0 0 0 0 0 0 0 0 0 0 0 0 0 0 127 0" result="hardAlpha"/>
<feOffset dy="4"/>
<feGaussianBlur stdDeviation="2"/>
<feComposite in2="hardAlpha" operator="out"/>
<feColorMatrix type="matrix" values="0 0 0 0 0 0 0 0 0 0 0 0 0 0 0 0 0 0 0.25 0"/>
<feBlend mode="normal" in2="BackgroundImageFix" result="effect1_dropShadow_217_151"/>
<feBlend mode="normal" in="SourceGraphic" in2="effect1_dropShadow_217_151" result="shape"/>
</filter>
<filter id="filter2_d_217_151" x="117.939" y="113.652" width="86.2699" height="110.433" filterUnits="userSpaceOnUse" color-interpolation-filters="sRGB">
<feFlood flood-opacity="0" result="BackgroundImageFix"/>
<feColorMatrix in="SourceAlpha" type="matrix" values="0 0 0 0 0 0 0 0 0 0 0 0 0 0 0 0 0 0 127 0" result="hardAlpha"/>
<feOffset dx="6" dy="6"/>
<feGaussianBlur stdDeviation="2"/>
<feComposite in2="hardAlpha" operator="out"/>
<feColorMatrix type="matrix" values="0 0 0 0 0 0 0 0 0 0 0 0 0 0 0 0 0 0 0.25 0"/>
<feBlend mode="normal" in2="BackgroundImageFix" result="effect1_dropShadow_217_151"/>
<feBlend mode="normal" in="SourceGraphic" in2="effect1_dropShadow_217_151" result="shape"/>
</filter>
<filter id="filter3_i_217_151" x="121.611" y="107.357" width="70.4544" height="56.0844" filterUnits="userSpaceOnUse" color-interpolation-filters="sRGB">
<feFlood flood-opacity="0" result="BackgroundImageFix"/>
<feBlend mode="normal" in="SourceGraphic" in2="BackgroundImageFix" result="shape"/>
<feColorMatrix in="SourceAlpha" type="matrix" values="0 0 0 0 0 0 0 0 0 0 0 0 0 0 0 0 0 0 127 0" result="hardAlpha"/>
<feOffset dx="10" dy="-10"/>
<feGaussianBlur stdDeviation="15"/>
<feComposite in2="hardAlpha" operator="arithmetic" k2="-1" k3="1"/>
<feColorMatrix type="matrix" values="0 0 0 0 0 0 0 0 0 0 0 0 0 0 0 0 0 0 0.15 0"/>
<feBlend mode="normal" in2="shape" result="effect1_innerShadow_217_151"/>
</filter>
<filter id="filter4_i_217_151" x="117.939" y="108.652" width="76.7651" height="35.0753" filterUnits="userSpaceOnUse" color-interpolation-filters="sRGB">
<feFlood flood-opacity="0" result="BackgroundImageFix"/>
<feBlend mode="normal" in="SourceGraphic" in2="BackgroundImageFix" result="shape"/>
<feColorMatrix in="SourceAlpha" type="matrix" values="0 0 0 0 0 0 0 0 0 0 0 0 0 0 0 0 0 0 127 0" result="hardAlpha"/>
<feOffset dx="20" dy="-5"/>
<feGaussianBlur stdDeviation="5"/>
<feComposite in2="hardAlpha" operator="arithmetic" k2="-1" k3="1"/>
<feColorMatrix type="matrix" values="0 0 0 0 0 0 0 0 0 0 0 0 0 0 0 0 0 0 0.15 0"/>
<feBlend mode="normal" in2="shape" result="effect1_innerShadow_217_151"/>
</filter>
<linearGradient id="paint0_linear_217_151" x1="22.4207" y1="25.7668" x2="343.028" y2="349.577" gradientUnits="userSpaceOnUse">
<stop stop-color="#EB8686"/>
<stop offset="1" stop-color="#EDDB5F"/>
</linearGradient>
</defs>
</svg>
